<?xml version="1.0" standalone="no"?>
<!DOCTYPE svg PUBLIC "-//W3C//DTD SVG 20010904//EN"
 "http://www.w3.org/TR/2001/REC-SVG-20010904/DTD/svg10.dtd">
<svg version="1.0" xmlns="http://www.w3.org/2000/svg"
 width="980.000000pt" height="980.000000pt" viewBox="0 0 980.000000 980.000000"
 preserveAspectRatio="xMidYMid meet">

<g transform="translate(0.000000,980.000000) scale(0.100000,-0.100000)"
fill="#000000" stroke="none">
<path d="M3309 7686 c-155 -45 -274 -172 -340 -365 -34 -97 -60 -263 -68 -431
-4 -91 -6 -171 -3 -178 3 -9 41 -12 161 -10 l156 3 3 150 2 150 -40 17 c-79
33 -92 138 -16 138 18 0 39 -7 46 -15 10 -12 19 -7 59 34 39 38 50 56 55 94
l7 46 48 -6 c67 -8 114 11 159 62 l38 43 23 -19 c27 -22 70 -24 118 -7 28 10
33 17 33 44 0 81 -78 180 -178 226 -76 35 -191 45 -263 24z"/>
<path d="M3630 7285 c-15 -18 1 -20 18 -3 10 10 17 10 33 0 12 -8 24 -11 27
-7 9 9 -19 25 -44 25 -12 0 -27 -7 -34 -15z"/>
<path d="M3406 7218 c-26 -36 -18 -44 13 -14 20 20 37 27 50 23 12 -3 21 -1
21 4 0 5 -15 9 -34 9 -25 0 -39 -7 -50 -22z"/>
<path d="M3652 7174 c-12 -8 -22 -20 -22 -26 0 -6 8 -4 18 5 21 19 48 22 57 7
8 -12 25 -13 25 -2 0 7 -42 32 -53 32 -2 0 -13 -7 -25 -16z"/>
<path d="M6943 7145 c-13 -9 -23 -22 -23 -30 0 -10 -12 -9 -52 7 -117 44 -219
-17 -243 -145 -11 -55 19 -137 66 -183 34 -33 45 -38 99 -42 60 -4 61 -4 98
34 l37 39 22 -22 c28 -29 82 -30 140 -3 l43 19 4 -22 c22 -123 28 -143 48
-165 41 -43 57 -46 84 -17 31 34 72 31 93 -6 13 -24 13 -31 -3 -73 -12 -31
-27 -51 -47 -61 -25 -13 -29 -21 -29 -56 l0 -40 41 23 c102 57 179 189 187
318 7 125 -40 250 -116 308 -28 22 -46 27 -86 26 -28 0 -58 -3 -68 -5 -10 -2
-25 9 -40 30 -32 47 -87 73 -166 78 -51 4 -72 1 -89 -12z"/>
<path d="M3444 7126 c-10 -8 -16 -18 -12 -22 5 -4 17 1 28 11 17 16 25 17 40
7 27 -16 35 -15 20 3 -16 19 -50 19 -76 1z"/>
<path d="M3590 7126 c0 -5 11 -23 24 -40 13 -18 26 -40 29 -51 4 -16 5 -15 5
5 1 14 -12 40 -28 60 -17 19 -30 30 -30 26z"/>
<path d="M3173 7096 c12 -14 24 -23 26 -20 5 5 -30 44 -40 44 -4 0 2 -11 14
-24z"/>
<path d="M5435 6976 c-39 -11 -40 -13 -45 -61 l-5 -50 -75 0 -75 0 -3 51 c-3
56 -12 64 -78 64 -45 0 -60 -24 -73 -120 -14 -110 -14 -167 2 -177 6 -4 110
-8 230 -9 l219 -1 11 25 c8 18 7 54 -7 150 -10 70 -19 128 -20 128 -11 10 -49
10 -81 0z"/>
<path d="M3486 6965 c4 -9 15 -20 25 -25 23 -13 79 -13 79 0 0 6 -10 8 -23 5
-15 -4 -32 1 -49 14 -31 25 -39 26 -32 6z"/>
<path d="M6976 6699 c-15 -12 -25 -24 -22 -27 3 -3 15 3 25 13 20 17 60 18
106 1 17 -7 17 -5 -4 13 -30 27 -71 27 -105 0z"/>
<path d="M6790 6685 c-15 -18 -7 -19 21 -4 15 7 27 6 49 -5 33 -16 42 -3 11
14 -28 15 -67 12 -81 -5z"/>
<path d="M3480 6632 c0 -5 -11 -25 -24 -45 -13 -19 -23 -37 -21 -39 2 -2 -4
-4 -13 -5 -9 -1 -35 -5 -58 -8 -54 -9 -105 15 -130 61 -10 18 -20 34 -21 34
-19 0 -52 -27 -49 -39 21 -73 49 -314 62 -528 4 -62 11 -113 15 -113 5 0 9 4
9 9 0 5 13 14 29 21 24 9 29 17 27 43 -1 24 4 32 18 35 11 2 25 -3 32 -13 8
-10 14 -12 19 -6 3 6 13 11 22 11 19 0 63 -40 63 -57 0 -7 7 -13 15 -13 13 0
20 -13 13 -24 -2 -2 5 -13 14 -23 15 -17 16 -22 4 -38 -12 -17 -10 -23 14 -55
22 -27 27 -42 23 -67 -3 -18 -9 -33 -14 -33 -5 0 -9 3 -9 8 -1 4 -16 25 -35
47 l-34 39 -35 -36 c-22 -23 -34 -43 -30 -52 7 -17 -100 -131 -114 -122 -5 3
-21 -5 -36 -17 l-28 -22 -24 -355 c-13 -195 -24 -358 -24 -362 0 -5 113 -8
251 -8 234 0 250 1 245 18 -5 16 -46 363 -46 390 0 9 54 12 235 12 235 0 235
0 245 23 5 12 19 84 31 161 16 107 18 140 9 146 -7 4 -14 18 -16 31 -2 13 -6
34 -10 47 -4 15 -2 22 7 22 10 0 10 3 1 12 -15 15 -16 48 -1 48 6 0 9 7 5 15
-9 26 5 45 34 45 33 0 29 -13 66 213 31 195 34 187 -63 184 -56 -2 -63 0 -65
18 -3 19 -11 20 -145 23 -143 3 -143 3 -143 -20 0 -22 -3 -23 -71 -21 -114 3
-113 4 -134 -131 -9 -64 -21 -116 -26 -116 -5 0 -9 135 -9 310 l0 310 -40 20
c-22 11 -40 16 -40 12z"/>
<path d="M5313 6514 c14 -255 68 -581 133 -806 82 -281 181 -467 321 -600 79
-74 143 -114 225 -139 97 -30 106 -18 13 15 -99 35 -167 78 -239 151 -215 219
-361 644 -421 1227 -8 81 -15 172 -15 202 0 31 -5 58 -12 62 -8 5 -10 -23 -5
-112z"/>
<path d="M7306 6578 c-9 -12 -16 -29 -15 -38 0 -13 1 -13 6 0 3 8 12 23 21 33
8 9 13 20 10 23 -3 3 -13 -5 -22 -18z"/>
<path d="M6796 6581 c-8 -13 4 -42 15 -35 12 7 12 44 0 44 -6 0 -12 -4 -15 -9z"/>
<path d="M6960 6560 c0 -11 5 -20 10 -20 6 0 10 9 10 20 0 11 -4 20 -10 20 -5
0 -10 -9 -10 -20z"/>
<path d="M6866 6526 c-22 -57 -16 -77 21 -75 l28 2 -27 4 c-32 5 -35 21 -12
64 8 17 14 35 12 41 -2 6 -12 -10 -22 -36z"/>
<path d="M6986 6364 c-16 -23 -24 -26 -57 -21 -22 3 -39 2 -39 -3 0 -8 35 -20
63 -20 19 0 67 42 67 60 0 17 -14 11 -34 -16z"/>
<path d="M6559 6322 c-20 -17 -29 -53 -74 -308 -29 -159 -51 -290 -49 -292 1
-2 30 19 64 47 60 48 95 65 355 175 162 69 152 61 156 131 l4 59 -46 7 c-92
14 -162 68 -201 157 l-19 42 -83 0 c-67 0 -88 -4 -107 -18z"/>
<path d="M7280 6177 l0 -164 48 -21 c26 -12 137 -60 247 -107 110 -47 211 -91
224 -98 41 -20 99 -87 126 -142 29 -62 32 -145 14 -365 -5 -69 -10 -132 -10
-140 -1 -19 -37 -275 -45 -313 -3 -15 -17 -41 -31 -57 l-25 -30 181 0 c179 0
181 0 186 23 2 12 14 76 25 142 21 121 80 453 165 927 28 159 43 268 39 285
-4 16 -48 70 -102 126 l-96 97 -473 0 -473 0 0 -163z"/>
<path d="M6381 5567 c-13 -21 -12 -21 5 -5 10 10 16 20 13 22 -3 3 -11 -5 -18
-17z"/>
<path d="M6586 5518 c-2 -7 -17 -96 -33 -198 -22 -136 -27 -190 -19 -202 16
-27 23 -22 29 20 15 90 57 376 57 384 0 13 -30 9 -34 -4z"/>
<path d="M7641 5463 c-15 -102 -41 -319 -40 -345 l0 -23 9 23 c6 14 18 22 32
22 15 0 19 3 11 8 -10 6 -9 44 7 178 24 203 24 204 6 204 -10 0 -17 -21 -25
-67z"/>
<path d="M6343 5475 c-3 -9 -3 -18 -1 -21 3 -3 8 4 11 16 6 23 -1 27 -10 5z"/>
<path d="M6955 5389 c-108 -73 -99 -65 -91 -84 5 -13 10 -14 28 -4 13 7 25 15
28 18 8 9 116 81 122 81 3 0 11 -14 18 -31 11 -26 11 -33 -1 -41 -11 -8 -10
-9 4 -4 11 3 17 0 17 -9 0 -17 25 -20 43 -5 7 6 41 32 76 58 36 26 65 52 65
57 -1 17 -29 16 -50 -2 -11 -10 -27 -22 -36 -28 -8 -5 -27 -19 -42 -29 -32
-22 -39 -17 -56 47 -6 20 -16 37 -23 37 -7 0 -53 -27 -102 -61z"/>
<path d="M6910 5390 c-9 -6 -10 -10 -3 -10 6 0 15 5 18 10 8 12 4 12 -15 0z"/>
<path d="M6307 5366 c-8 -29 -5 -41 10 -35 5 2 6 18 3 34 l-6 30 -7 -29z"/>
<path d="M6610 5330 c0 -5 5 -10 11 -10 5 0 7 5 4 10 -3 6 -8 10 -11 10 -2 0
-4 -4 -4 -10z"/>
<path d="M6826 5317 c3 -10 9 -15 12 -12 3 3 0 11 -7 18 -10 9 -11 8 -5 -6z"/>
<path d="M6620 5262 c0 -16 -4 -20 -17 -15 -15 6 -16 4 -6 -8 6 -8 13 -30 16
-49 3 -32 4 -31 6 10 1 34 4 41 11 30 8 -11 9 -7 4 15 -9 38 -14 44 -14 17z"/>
<path d="M6281 5254 c0 -11 3 -14 6 -6 3 7 2 16 -1 19 -3 4 -6 -2 -5 -13z"/>
<path d="M6321 5261 c-8 -5 -16 -16 -17 -24 -2 -12 6 -14 35 -10 42 7 54 13
23 13 -11 0 -22 7 -24 15 -2 10 -8 12 -17 6z"/>
<path d="M6940 5260 c-13 -8 -12 -10 3 -10 9 0 17 5 17 10 0 12 -1 12 -20 0z"/>
<path d="M6496 5244 c-9 -24 -6 -41 4 -19 7 15 9 10 9 -23 1 -35 -3 -44 -21
-52 l-23 -9 22 0 c22 -1 24 1 38 73 2 10 -2 25 -10 32 -11 11 -14 11 -19 -2z"/>
<path d="M6740 5239 c-36 -3 124 -6 355 -6 231 0 413 1 405 3 -26 7 -691 9
-760 3z"/>
<path d="M7713 5233 c26 -2 67 -2 90 0 23 2 2 3 -48 3 -49 0 -68 -1 -42 -3z"/>
<path d="M6316 5205 c-4 -13 -2 -14 14 -5 23 13 26 20 6 20 -8 0 -16 -7 -20
-15z"/>
<path d="M6632 5190 c0 -14 2 -19 5 -12 2 6 2 18 0 25 -3 6 -5 1 -5 -13z"/>
<path d="M6585 5185 c-16 -49 -16 -51 0 -31 15 19 20 46 10 46 -3 0 -8 -7 -10
-15z"/>
<path d="M7660 5181 c0 -11 4 -22 9 -25 4 -3 6 6 3 19 -5 30 -12 33 -12 6z"/>
<path d="M7680 5180 c0 -5 18 -10 40 -10 22 0 40 5 40 10 0 6 -18 10 -40 10
-22 0 -40 -4 -40 -10z"/>
<path d="M7820 5160 c-23 -7 -23 -8 -3 -9 12 -1 25 4 28 9 3 6 5 10 3 9 -2 -1
-14 -5 -28 -9z"/>
<path d="M7738 5153 c7 -3 16 -2 19 1 4 3 -2 6 -13 5 -11 0 -14 -3 -6 -6z"/>
<path d="M7860 5150 c-13 -8 -12 -10 3 -10 9 0 17 5 17 10 0 12 -1 12 -20 0z"/>
<path d="M6614 5128 c-4 -6 0 -16 9 -23 10 -7 17 -15 17 -19 0 -10 -48 -7 -55
4 -10 16 -27 0 -22 -21 3 -10 1 -22 -4 -25 -5 -3 -10 7 -10 23 -1 15 -5 1 -10
-32 -19 -128 -30 -171 -54 -207 -38 -57 -97 -90 -171 -96 l-62 -5 -11 -81 c-7
-44 -17 -109 -23 -143 l-10 -63 -137 0 c-87 0 -156 -5 -191 -15 -114 -30 -221
-136 -255 -250 -10 -37 -15 -97 -15 -194 0 -87 -4 -141 -10 -141 -6 0 -10 127
-10 360 l0 360 -60 0 -60 0 0 -360 0 -360 -93 0 c-124 0 -127 -3 -127 -138 0
-135 -5 -132 202 -132 l158 0 2 -932 3 -932 220 2 c172 1 220 4 222 14 2 15
11 203 50 1093 15 359 31 622 34 600 4 -22 8 -213 9 -425 2 -212 5 -587 9
-834 l6 -448 215 0 215 1 6 43 c4 24 12 108 19 188 18 227 109 1220 116 1273
l6 47 79 0 79 0 0 -364 0 -365 -22 -3 -23 -3 -3 -522 -2 -521 -38 -6 c-20 -4
-57 -6 -82 -5 -58 3 -88 -14 -106 -56 -8 -19 -14 -37 -14 -40 0 -3 187 -5 415
-5 283 0 415 3 415 10 0 21 -30 70 -49 80 -11 5 -58 10 -105 10 l-86 0 -2 527
-3 528 -22 3 -23 3 0 364 0 364 180 3 c217 4 204 -5 283 178 l54 125 124 5
c135 5 166 17 194 70 8 15 41 180 75 366 87 492 91 517 97 537 4 17 -18 17
-454 15 l-458 -3 -3 -357 -2 -358 -55 0 -55 0 0 354 0 355 -52 3 c-48 3 -53 5
-56 28 -2 14 -8 34 -13 46 -12 23 3 127 21 149 6 7 30 18 55 25 25 7 42 16 39
21 -3 5 1 6 9 3 7 -2 65 9 128 26 63 16 146 38 184 47 39 9 71 20 73 23 1 4
30 6 65 5 34 -1 48 0 31 2 l-30 4 2 61 c2 34 -1 69 -7 80 -6 12 -6 24 1 37 13
25 -2 36 -31 21 -15 -9 -24 -9 -32 -1 -16 16 -893 15 -903 -1z m924 -80 c-2
-5 -8 -9 -13 -9 -5 0 -11 4 -13 9 -1 5 4 9 13 9 9 0 14 -4 13 -9z m-991 -75
c-3 -10 -5 -2 -5 17 0 19 2 27 5 18 2 -10 2 -26 0 -35z m691 20 c-10 -2 -26
-2 -35 0 -10 3 -2 5 17 5 19 0 27 -2 18 -5z m298 -8 c9 -8 12 -15 7 -15 -5 0
-13 4 -18 9 -6 5 -28 11 -50 14 l-40 4 43 1 c27 1 49 -4 58 -13z m39 -3 c-3
-3 -11 0 -18 7 -9 10 -8 11 6 5 10 -3 15 -9 12 -12z m-15 -42 c-8 -5 -17 -7
-19 -4 -3 3 1 9 9 14 8 5 17 7 19 4 3 -3 -1 -9 -9 -14z m-233 -36 c-3 -3 -12
-4 -19 -1 -8 3 -5 6 6 6 11 1 17 -2 13 -5z m90 0 c-3 -3 -12 -4 -19 -1 -8 3
-5 6 6 6 11 1 17 -2 13 -5z m-44 -11 c-7 -2 -19 -2 -25 0 -7 3 -2 5 12 5 14 0
19 -2 13 -5z m-270 -70 c-7 -2 -19 -2 -25 0 -7 3 -2 5 12 5 14 0 19 -2 13 -5z"/>
<path d="M7763 5133 c15 -2 39 -2 55 0 15 2 2 4 -28 4 -30 0 -43 -2 -27 -4z"/>
<path d="M6210 5031 c0 -5 7 -11 15 -15 8 -3 15 -1 15 3 0 5 -7 11 -15 15 -8
3 -15 1 -15 -3z"/>
<path d="M1410 4682 c0 -88 3 -112 16 -123 11 -9 20 -10 32 -2 14 8 17 28 17
119 l0 109 -32 3 -33 3 0 -109z"/>
<path d="M1662 4673 l3 -118 25 0 25 0 0 115 0 115 -28 3 -28 3 3 -118z"/>
<path d="M1902 4673 l3 -118 25 0 25 0 3 118 3 117 -31 0 -31 0 3 -117z"/>
<path d="M5243 4705 c0 -22 2 -30 4 -17 2 12 2 30 0 40 -3 9 -5 -1 -4 -23z"/>
<path d="M5293 4690 c0 -25 2 -35 4 -22 2 12 2 32 0 45 -2 12 -4 2 -4 -23z"/>
<path d="M5343 4685 c-1 -19 3 -35 8 -35 5 0 9 16 9 35 0 19 -4 35 -8 35 -4 0
-8 -16 -9 -35z"/>
<path d="M7062 4698 c-1 -14 -5 -35 -8 -45 -5 -14 -4 -15 5 -7 7 7 11 26 8 45
-3 28 -4 29 -5 7z"/>
<path d="M7122 4698 c-1 -14 -5 -35 -8 -45 -5 -14 -4 -15 5 -7 7 7 11 26 8 45
-3 28 -4 29 -5 7z"/>
<path d="M7191 4710 c-1 -8 -4 -26 -7 -40 -5 -19 -4 -22 5 -14 7 6 11 24 8 40
-2 16 -5 22 -6 14z"/>
<path d="M1040 3258 c-1 -1399 -1 -1690 0 -1800 l0 -98 645 0 645 0 0 1440 0
1440 -645 0 -645 0 0 -982z"/>
<path d="M825 3145 c0 -495 1 -696 2 -447 2 250 2 655 0 900 -1 246 -2 42 -2
-453z"/>
<path d="M2545 3145 c0 -495 1 -696 2 -447 2 250 2 655 0 900 -1 246 -2 42 -2
-453z"/>
<path d="M8072 1933 l3 -568 397 -2 397 -2 0 556 c-1 306 -3 562 -6 570 -4 11
-78 13 -399 13 l-394 0 2 -567z"/>
<path d="M5530 1551 c0 -9 60 -34 66 -28 2 2 -12 11 -31 20 -19 9 -35 13 -35
8z"/>
<path d="M6070 1551 c0 -5 8 -11 18 -14 9 -2 26 -8 36 -13 13 -5 17 -4 13 3
-9 14 -67 35 -67 24z"/>
<path d="M2850 1510 c-6 -11 -10 -48 -8 -83 l3 -62 293 -3 c278 -2 292 -1 292
16 0 25 -32 53 -106 95 -41 23 -66 32 -75 26 -24 -15 -151 -10 -265 11 -133
24 -121 24 -134 0z"/>
<path d="M3560 1511 c-5 -11 -10 -49 -10 -85 l0 -66 296 0 295 0 -3 23 c-4 32
-154 130 -179 117 -29 -16 -148 -11 -265 10 -133 24 -121 24 -134 1z"/>
<path d="M5440 1510 c0 -5 6 -10 13 -10 6 0 23 -3 37 -6 18 -4 16 -1 -9 10
-39 19 -41 19 -41 6z"/>
<path d="M6000 1506 c14 -9 32 -15 40 -15 13 0 13 1 0 8 -8 5 -26 12 -40 15
l-25 7 25 -15z"/>
<path d="M5310 1390 l0 -30 635 0 635 0 0 30 0 30 -635 0 -635 0 0 -30z"/>
</g>
</svg>
